Aurangzeb 2013 Hindi Movies DVDScr Rip Sample Included ~ ☻rDX☻

Screen Shots :
 
http://myimghosting.serveftp.com/13/Aurangzeb.html
 
http://myimghost.cwahi.net/Aurangzeb.html
 
http://users2.jabry.com/myimghost/Aurangzeb/Aurangzeb1.jpg
 
http://users2.jabry.com/myimghost/Aurangzeb/Aurangzeb2.jpg

Format                                   : AVI
Format/Info                              : Audio Video Interleave
File size                                : 700 MiB
Duration                                 : 1h 55mn
Overall bit rate                         : 845 Kbps
Writing application                      : Lavf52.61.0

Video
ID                                       : 0
Format                                   : MPEG-4 Visual
Format profile                           : Simple@L3
Format settings, BVOP                    : No
Format settings, QPel                    : No
Format settings, GMC                     : No warppoints
Format settings, Matrix                  : Default (H.263)
Codec ID                                 : XVID
Codec ID/Hint                            : XviD
Duration                                 : 1h 55mn
Bit rate                                 : 704 Kbps
Width                                    : 352 pixels
Height                                   : 288 pixels
Display aspect ratio                     : 4:3
Frame rate                               : 29.970 fps
Standard                                 : PAL
Color space                              : YUV
Chroma subsampling                       : 4:2:0
Bit depth                                : 8 bits
Scan type                                : Progressive
Compression mode                         : Lossy
Bits/(Pixel*Frame)                       : 0.232
Stream size                              : 583 MiB (83%)
Writing library                          : XviD 1.2.1 (UTC 2008-12-04)

Audio
ID                                       : 1
Format                                   : MPEG Audio
Format version                           : Version 1
Format profile                           : Layer 3
Mode                                     : Joint stereo
Mode extension                           : MS Stereo
Codec ID                                 : 55
Codec ID/Hint                            : MP3
Duration                                 : 1h 55mn
Bit rate mode                            : Constant
Bit rate                                 : 128 Kbps
Channel(s)                               : 2 channels
Sampling rate                            : 44.1 KHz
Compression mode                         : Lossy
Stream size                              : 106 MiB (15%)
Alignment                                : Aligned on interleaves
Interleave, duration                     : 26 ms (0.78 video frame)
Interleave, preload duration             : 26 ms
Writing library                          : LAMEªªú” pQ@p0Áx